<svg xml:space="preserve" xmlns="http://www.w3.org/2000/svg" xmlns:xlink="http://www.w3.org/1999/xlink"
	 viewBox="0 0 512 512">
	<defs>
		<g>
			<linearGradient id="mle2a" x1="371.97" x2="548.51" y1="763.68" y2=".74" gradientUnits="userSpaceOnUse">
				<stop offset="0" stop-color="#ff8f5a"/>
				<stop offset=".99" stop-color="#ff2f96"/>
				<stop offset="1" stop-color="#ff2f96"/>
			</linearGradient>
		</g>
		<style>
			g {
			display: none;
			}
			g:target {
			display: inline;
			}
  		</style>
	</defs>
	
	<g id="coding">
		<circle fill="url(#mle2a)" cx="53.333" cy="53.333" r="10.667"/>
		<circle fill="url(#mle2a)" cx="96" cy="53.333" r="10.667"/>
		<circle fill="url(#mle2a)" cx="138.667" cy="53.333" r="10.667"/>
		<path fill="url(#mle2a)" d="M188.167,301.146L134,256l54.167-45.146c4.521-3.771,5.135-10.5,1.365-15.021c-3.781-4.5-10.479-5.146-15.031-1.354
			l-64,53.333c-2.427,2.021-3.833,5.021-3.833,8.188s1.406,6.167,3.833,8.188l64,53.333c2,1.667,4.417,2.479,6.823,2.479
			c3.063,0,6.094-1.313,8.208-3.833C193.302,311.646,192.688,304.917,188.167,301.146z"/>
		<path fill="url(#mle2a)" d="M279.802,316.167c2.115,2.521,5.146,3.833,8.208,3.833c2.406,0,4.823-0.813,6.823-2.479l64-53.333
			c2.427-2.021,3.833-5.021,3.833-8.188s-1.406-6.167-3.833-8.188l-64-53.333c-4.531-3.792-11.24-3.146-15.031,1.354
			c-3.771,4.521-3.156,11.25,1.365,15.021L335.333,256l-54.167,45.146C276.646,304.917,276.031,311.646,279.802,316.167z"/>
		<path fill="url(#mle2a)" d="M270.865,171.521c-5.385-2.292-11.688,0.188-14,5.604l-64,149.333c-2.323,5.417,0.188,11.688,5.604,14.021
			c1.365,0.583,2.792,0.854,4.198,0.854c4.135,0,8.073-2.417,9.802-6.458l64-149.333
			C278.792,180.125,276.281,173.854,270.865,171.521z"/>
		<path fill="url(#mle2a)" d="M503.927,362.979l-20.438-5.104l10.833-18.042c2.521-4.208,1.854-9.583-1.604-13.042l-23.385-23.385V42.667
			C469.333,19.146,450.198,0,426.667,0h-384C19.135,0,0,19.146,0,42.667v384c0,23.521,19.135,42.667,42.667,42.667h260.74
			l23.375,23.375c3.448,3.458,8.813,4.104,13.031,1.604l18.063-10.833l5.115,20.438c1.188,4.75,5.448,8.083,10.344,8.083H416
			c4.896,0,9.156-3.333,10.344-8.083l5.115-20.438l18.063,10.833c4.198,2.521,9.573,1.854,13.031-1.604l30.167-30.167
			c3.458-3.458,4.125-8.833,1.604-13.042l-10.833-18.042l20.438-5.104c4.74-1.188,8.073-5.458,8.073-10.354v-42.667
			C512,368.438,508.667,364.167,503.927,362.979z M21.333,42.667c0-11.771,9.573-21.333,21.333-21.333h384
			c11.76,0,21.333,9.563,21.333,21.333v42.667H21.333V42.667z M295.911,448H42.667c-11.76,0-21.333-9.563-21.333-21.333v-320H448
			v189.267l-16.542,9.921l-5.115-20.438c-1.188-4.75-5.448-8.083-10.344-8.083h-42.667c-4.896,0-9.156,3.333-10.344,8.083
			l-5.115,20.438l-18.063-10.833c-4.208-2.521-9.583-1.875-13.031,1.604l-30.167,30.167c-3.458,3.458-4.125,8.833-1.604,13.042
			l10.833,18.042l-20.438,5.104c-4.74,1.188-8.073,5.458-8.073,10.354V416c0,4.896,3.333,9.167,8.073,10.354l20.438,5.104
			L295.911,448z M490.667,407.667l-18.323,4.583c-3.479,0.875-6.292,3.438-7.479,6.833c-0.948,2.729-1.99,5.396-3.25,7.979
			c-1.573,3.25-1.406,7.063,0.448,10.167l9.677,16.125l-18.385,18.375l-16.135-9.667c-3.094-1.875-6.927-2.042-10.156-0.458
			c-2.594,1.271-5.271,2.313-8.01,3.271c-3.375,1.188-5.927,4-6.792,7.479l-4.583,18.313h-26.021l-4.583-18.313
			c-0.865-3.479-3.417-6.292-6.792-7.479c-2.74-0.958-5.417-2-8.01-3.271c-3.24-1.563-7.063-1.417-10.156,0.458l-16.135,9.667
			l-18.385-18.375l9.677-16.125c1.854-3.104,2.021-6.917,0.448-10.167c-1.26-2.583-2.302-5.25-3.25-7.979
			c-1.188-3.396-4-5.958-7.479-6.833l-18.323-4.583v-26l18.323-4.583c3.479-0.875,6.292-3.438,7.479-6.833
			c0.948-2.729,1.99-5.396,3.25-7.979c1.573-3.25,1.406-7.063-0.448-10.167l-9.677-16.125l18.385-18.375l16.135,9.667
			c3.094,1.854,6.896,2,10.156,0.458c2.594-1.271,5.271-2.313,8.01-3.271c3.375-1.188,5.927-4,6.792-7.479l4.583-18.313h26.021
			l4.583,18.313c0.865,3.479,3.417,6.292,6.792,7.479c2.74,0.958,5.417,2,8.01,3.271c3.24,1.542,7.063,1.417,10.156-0.458
			l16.135-9.667l18.385,18.375l-9.677,16.125c-1.854,3.104-2.021,6.917-0.448,10.167c1.26,2.583,2.302,5.25,3.25,7.979
			c1.188,3.396,4,5.958,7.479,6.833l18.323,4.583V407.667z"/>
		<path fill="url(#mle2a)" d="M394.667,341.333c-29.406,0-53.333,23.917-53.333,53.333S365.26,448,394.667,448S448,424.083,448,394.667
			S424.073,341.333,394.667,341.333z M394.667,426.667c-17.646,0-32-14.354-32-32s14.354-32,32-32s32,14.354,32,32
			S412.313,426.667,394.667,426.667z"/>
	</g>

	<g id="programming">
		<path fill="url(#mle2a)" d="M458.667,0H53.333C23.893,0.035,0.035,23.893,0,53.333v405.333C0.035,488.107,23.893,511.965,53.333,512h405.333
			c29.441-0.035,53.298-23.893,53.333-53.333V53.333C511.965,23.893,488.107,0.035,458.667,0z M490.667,458.667
			c0,17.673-14.327,32-32,32H53.333c-17.673,0-32-14.327-32-32V53.333c0-17.673,14.327-32,32-32h405.333c17.673,0,32,14.327,32,32
			V458.667z"/>
		<rect fill="url(#mle2a)" x="42.667" y="85.333" width="160" height="21.333"/>	
		<rect fill="url(#mle2a)" x="53.333" y="42.667" width="21.333" height="21.333"/>
		<rect fill="url(#mle2a)" x="96" y="42.667" width="21.333" height="21.333"/>
		<rect fill="url(#mle2a)" x="437.333" y="42.667" width="21.333" height="21.333"/>
		<path fill="url(#mle2a)" d="M448,170.667H64c-11.782,0-21.333,9.551-21.333,21.333v234.667C42.667,438.449,52.218,448,64,448h384
			c11.782,0,21.333-9.551,21.333-21.333V192C469.333,180.218,459.782,170.667,448,170.667z M448,426.667H64V192h384V426.667z"/>
		<path fill="url(#mle2a)" d="M263.541,88.459c-4.165-4.164-10.917-4.164-15.083,0l-85.333,85.333l15.083,15.083L256,111.083l77.461,77.461
			l15.083-15.083L263.541,88.459z"/>
		<rect fill="url(#mle2a)" x="309.333" y="85.333" width="149.333" height="21.333"/>
		<path fill="url(#mle2a)" d="M224,352v-21.333h-21.333V352c0.062,0.634,0.062,1.273,0,1.907c-0.527,5.365-5.302,9.287-10.667,8.76h-21.333
			c-0.634,0.062-1.273,0.062-1.907,0c-5.365-0.527-9.286-5.302-8.76-10.667v-85.333c-0.062-0.634-0.062-1.273,0-1.907
			c0.526-5.365,5.302-9.286,10.667-8.76H192c0.634-0.062,1.273-0.062,1.907,0c5.365,0.526,9.286,5.302,8.76,10.667V288H224v-21.333
			c0.018-0.606,0.018-1.213,0-1.819c-0.502-17.171-14.829-30.684-32-30.181h-21.333c-0.606-0.018-1.213-0.018-1.819,0
			c-17.171,0.502-30.684,14.829-30.181,32V352c-0.018,0.606-0.018,1.213,0,1.819c0.502,17.171,14.829,30.684,32,30.181H192
			c0.606,0.018,1.213,0.018,1.819,0C210.99,383.498,224.502,369.171,224,352z"/>
		<rect fill="url(#mle2a)" x="266.667" y="234.667" width="21.333" height="149.333"/>
		<rect fill="url(#mle2a)" x="320" y="234.667" width="21.333" height="149.333"/>
		<rect fill="url(#mle2a)" x="245.333" y="266.667" width="117.333" height="21.333"/>
		<rect fill="url(#mle2a)" x="245.333" y="330.667" width="117.333" height="21.333"/>
	</g>
	<g id="responsive">
		<path fill="url(#mle2a)" d="M456,232V56c0-22.056-17.944-40-40-40H64c-22.056,0-40,17.944-40,40v120c-13.232,0-24,10.768-24,24v240
			c0,13.232,10.768,24,24,24h176c13.232,0,24-10.768,24-24h67.048c7.544,0,14.496-3.44,19.072-9.432s6.064-13.608,4.08-20.88
			L298.472,352H344v88c0,13.232,10.768,24,24,24h88c13.232,0,24-10.768,24-24V256C480,242.768,469.232,232,456,232z M208,440
			c0,4.408-3.592,8-8,8H24c-4.408,0-8-3.592-8-8v-16h192V440z M208,408H16V232h192V408z M208,216H16v-16c0-4.408,3.592-8,8-8h176
			c4.408,0,8,3.592,8,8V216z M298.768,413.896c0.664,2.424,0.168,4.96-1.36,6.96s-3.84,3.144-6.36,3.144H224v-16h73.16
			L298.768,413.896z M224,392v-40h57.888l10.912,40H224z M344,336H224v-48h120V336z M344,256v16H224v-72c0-13.232-10.768-24-24-24
			H40V56c0-13.232,10.768-24,24-24h352c13.232,0,24,10.768,24,24v176h-72C354.768,232,344,242.768,344,256z M464,440
			c0,4.408-3.592,8-8,8h-88c-4.408,0-8-3.592-8-8v-16h104V440z M464,408H360V288h104V408z M464,272H360v-16c0-4.408,3.592-8,8-8h88
			c4.408,0,8,3.592,8,8V272z"/>
		<rect fill="url(#mle2a)" x="41.372" y="327.994" transform="matrix(0.7071 -0.7071 0.7071 0.7071 -218.8385 143.6649)" width="45.256" height="16"/>
		<rect fill="url(#mle2a)" x="60.114" y="319.995" transform="matrix(0.7071 -0.7071 0.7071 0.7071 -194.4378 186.5751)" width="135.767" height="16"/>
		<rect fill="url(#mle2a)" x="86.054" y="272.005" transform="matrix(0.7071 -0.7071 0.7071 0.7071 -162.8477 166.8601)" width="67.879" height="16"/>
		<rect fill="url(#mle2a)" x="375.705" y="324.008" transform="matrix(0.7071 -0.7071 0.7071 0.7071 -116.4408 382.9028)" width="56.559" height="16"/>
		<rect fill="url(#mle2a)" x="391.702" y="356.042" transform="matrix(0.7071 -0.7071 0.7071 0.7071 -134.4066 403.5971)" width="56.559" height="16"/>
		<rect fill="url(#mle2a)" x="206.052" y="128.002" transform="matrix(0.7071 -0.7071 0.7071 0.7071 -25.876 209.5337)" width="67.879" height="16"/>
		<rect fill="url(#mle2a)" x="278.057" y="112.001" transform="matrix(0.7071 -0.7071 0.7071 0.7071 6.5281 255.7627)" width="67.879" height="16"/>
		<rect fill="url(#mle2a)" x="233.364" y="168.01" transform="matrix(0.7071 -0.7071 0.7071 0.7071 -49.4797 232.5655)" width="45.256" height="16"/>
		<rect fill="url(#mle2a)" x="273.302" y="72.062" transform="matrix(0.7071 -0.7071 0.7071 0.7071 30.0796 232.7427)" width="45.368" height="16"/>
		<rect fill="url(#mle2a)" x="56" y="48" width="16" height="16"/>
		<rect fill="url(#mle2a)" x="88" y="48" width="16" height="16"/>
		<rect fill="url(#mle2a)" x="120" y="48" width="16" height="16"/>
	</g>
	<g id="tools">
		<path fill="url(#mle2a)" d="M463.663,20.23H48.337C21.683,20.23,0,41.914,0,68.567v275.764c0,26.659,21.683,48.348,48.336,48.348h136.992
			c-1.233,26.663-6.004,52.508-14.226,77.07h-33.468c-6.08,0-11.011,4.93-11.011,11.011c0,6.081,4.931,11.011,11.011,11.011
			h236.731c6.08,0,11.011-4.93,11.011-11.011c0-6.081-4.931-11.011-11.011-11.011h-33.468
			c-8.222-24.564-12.993-50.409-14.226-77.07h136.991c26.654,0,48.337-21.689,48.337-48.348V68.567
			C512,41.914,490.317,20.23,463.663,20.23z M22.021,68.567c0-14.51,11.806-26.316,26.315-26.316h415.326
			c14.511,0,26.316,11.805,26.316,26.316V320.03H22.021V68.567z M194.243,469.75c7.593-24.703,11.997-50.527,13.14-77.07h97.234
			c1.144,26.54,5.548,52.364,13.14,77.07H194.243z M489.98,344.332h-0.001c0,14.517-11.806,26.327-26.316,26.327H48.337
			c-14.51,0-26.315-11.81-26.315-26.327v-2.279H489.98V344.332z"/>
		<path fill="url(#mle2a)" d="M402.818,275.99H165.734c-6.08,0-11.011,4.93-11.011,11.011c0,6.081,4.931,11.011,11.011,11.011h237.085
			c6.08,0,11.011-4.93,11.011-11.011C413.829,280.919,408.899,275.99,402.818,275.99z"/>
		<path fill="url(#mle2a)" d="M110.955,275.99h-1.773c-6.08,0-11.011,4.93-11.011,11.011c0,6.081,4.931,11.011,11.011,11.011h1.772
			c6.08,0,11.011-4.93,11.011-11.011C121.965,280.919,117.036,275.99,110.955,275.99z"/>
		<path fill="url(#mle2a)" d="M320.966,111.318l64.908,55.493l-64.908,55.493c-4.622,3.952-5.165,10.902-1.214,15.524
			c2.178,2.547,5.265,3.856,8.374,3.856c2.531,0,5.075-0.869,7.149-2.641l74.698-63.862c2.448-2.092,3.856-5.15,3.856-8.369
			s-1.407-6.277-3.855-8.369L335.275,94.58c-4.62-3.952-11.572-3.408-15.524,1.215
			C315.799,100.416,316.342,107.366,320.966,111.318z"/>
		<path fill="url(#mle2a)" d="M102.028,175.181l74.697,63.862c2.074,1.774,4.618,2.641,7.149,2.641c3.107,0,6.197-1.308,8.374-3.856
			c3.952-4.622,3.409-11.572-1.214-15.524l-64.907-55.493l64.907-55.493c4.622-3.952,5.165-10.902,1.214-15.524
			c-3.951-4.622-10.902-5.166-15.524-1.215l-74.697,63.862c-2.448,2.092-3.856,5.15-3.856,8.369S99.58,173.089,102.028,175.181z"/>
		<path fill="url(#mle2a)" d="M224.514,263.536c1.132,0.369,2.281,0.544,3.411,0.544c4.639,0,8.954-2.955,10.468-7.605l56.155-172.509
			c1.883-5.782-1.279-11.996-7.061-13.878c-5.784-1.883-11.996,1.279-13.878,7.062L217.454,249.66
			C215.57,255.44,218.732,261.654,224.514,263.536z"/>
	</g>
	<g id="telephone" viewBox="0 0 348.077 348.077">
		<path fill="url(#mle2a)" d="M340.273,275.083l-53.755-53.761c-10.707-10.664-28.438-10.34-39.518,0.744l-27.082,27.076
			c-1.711-0.943-3.482-1.928-5.344-2.973c-17.102-9.476-40.509-22.464-65.14-47.113c-24.704-24.701-37.704-48.144-47.209-65.257
			c-1.003-1.813-1.964-3.561-2.913-5.221l18.176-18.149l8.936-8.947c11.097-11.1,11.403-28.826,0.721-39.521L73.39,8.194
			C62.708-2.486,44.969-2.162,33.872,8.938l-15.15,15.237l0.414,0.411c-5.08,6.482-9.325,13.958-12.484,22.02
			C3.74,54.28,1.927,61.603,1.098,68.941C-6,127.785,20.89,181.564,93.866,254.541c100.875,100.868,182.167,93.248,185.674,92.876
			c7.638-0.913,14.958-2.738,22.397-5.627c7.992-3.122,15.463-7.361,21.941-12.43l0.331,0.294l15.348-15.029
			C350.631,303.527,350.95,285.795,340.273,275.083z"/>
	</g>
	<g id="email"  viewBox="0 0 511.626 511.626">
		<path fill="url(#mle2a)" d="M49.106,178.729c6.472,4.567,25.981,18.131,58.528,40.685c32.548,22.554,57.482,39.92,74.803,52.099
			c1.903,1.335,5.946,4.237,12.131,8.71c6.186,4.476,11.326,8.093,15.416,10.852c4.093,2.758,9.041,5.852,14.849,9.277
			c5.806,3.422,11.279,5.996,16.418,7.7c5.14,1.718,9.898,2.569,14.275,2.569h0.287h0.288c4.377,0,9.137-0.852,14.277-2.569
			c5.137-1.704,10.615-4.281,16.416-7.7c5.804-3.429,10.752-6.52,14.845-9.277c4.093-2.759,9.229-6.376,15.417-10.852
			c6.184-4.477,10.232-7.375,12.135-8.71c17.508-12.179,62.051-43.11,133.615-92.79c13.894-9.703,25.502-21.411,34.827-35.116
			c9.332-13.699,13.993-28.07,13.993-43.105c0-12.564-4.523-23.319-13.565-32.264c-9.041-8.947-19.749-13.418-32.117-13.418H45.679
			c-14.655,0-25.933,4.948-33.832,14.844C3.949,79.562,0,91.934,0,106.779c0,11.991,5.236,24.985,15.703,38.974
			C26.169,159.743,37.307,170.736,49.106,178.729z"/>
		<path fill="url(#mle2a)" d="M483.072,209.275c-62.424,42.251-109.824,75.087-142.177,98.501c-10.849,7.991-19.65,14.229-26.409,18.699
			c-6.759,4.473-15.748,9.041-26.98,13.702c-11.228,4.668-21.692,6.995-31.401,6.995h-0.291h-0.287
			c-9.707,0-20.177-2.327-31.405-6.995c-11.228-4.661-20.223-9.229-26.98-13.702c-6.755-4.47-15.559-10.708-26.407-18.699
			c-25.697-18.842-72.995-51.68-141.896-98.501C17.987,202.047,8.375,193.762,0,184.437v226.685c0,12.57,4.471,23.319,13.418,32.265
			c8.945,8.949,19.701,13.422,32.264,13.422h420.266c12.56,0,23.315-4.473,32.261-13.422c8.949-8.949,13.418-19.694,13.418-32.265
			V184.437C503.441,193.569,493.927,201.854,483.072,209.275z"/>
	</g>
	<g id="vk-icon">
		<path fill="#b2b9ca" d="M261.945,175.576c10.096,9.857,20.752,19.131,29.807,29.982
		c4,4.822,7.787,9.798,10.684,15.394c4.105,7.955,0.387,16.709-6.746,17.184l-44.34-0.02c-11.436,0.949-20.559-3.655-28.23-11.474
		c-6.139-6.253-11.824-12.908-17.727-19.372c-2.42-2.642-4.953-5.128-7.979-7.093c-6.053-3.929-11.307-2.726-14.766,3.587
		c-3.523,6.421-4.322,13.531-4.668,20.687c-0.475,10.441-3.631,13.186-14.119,13.664c-22.414,1.057-43.686-2.334-63.447-13.641
		c-17.422-9.968-30.932-24.04-42.691-39.971C34.828,153.482,17.295,119.395,1.537,84.353C-2.01,76.458,0.584,72.22,9.295,72.07
		c14.465-0.281,28.928-0.261,43.41-0.02c5.879,0.086,9.771,3.458,12.041,9.012c7.826,19.243,17.402,37.551,29.422,54.521
		c3.201,4.518,6.465,9.036,11.113,12.216c5.142,3.521,9.057,2.354,11.476-3.374c1.535-3.632,2.207-7.544,2.553-11.434
		c1.146-13.383,1.297-26.743-0.713-40.079c-1.234-8.323-5.922-13.711-14.227-15.286c-4.238-0.803-3.607-2.38-1.555-4.799
		c3.564-4.172,6.916-6.769,13.598-6.769h50.111c7.889,1.557,9.641,5.101,10.721,13.039l0.043,55.663
		c-0.086,3.073,1.535,12.192,7.07,14.226c4.43,1.448,7.35-2.096,10.008-4.905c11.998-12.734,20.561-27.783,28.211-43.366
		c3.395-6.852,6.314-13.968,9.143-21.078c2.096-5.276,5.385-7.872,11.328-7.757l48.229,0.043c1.43,0,2.877,0.021,4.262,0.258
		c8.127,1.385,10.354,4.881,7.844,12.817c-3.955,12.451-11.65,22.827-19.174,33.251c-8.043,11.129-16.645,21.877-24.621,33.072
		C252.26,161.544,252.842,166.697,261.945,175.576L261.945,175.576z M261.945,175.576"/>
	</g>

	<g id="facebook-icon">
		<path fill="#b2b9ca" d="M72.089,0.02L59.624,0C45.62,0,36.57,9.285,36.57,23.656v10.907H24.037c-1.083,0-1.96,0.878-1.96,1.961v15.803
		c0,1.083,0.878,1.96,1.96,1.96h12.533v39.876c0,1.083,0.877,1.96,1.96,1.96h16.352c1.083,0,1.96-0.878,1.96-1.96V54.287h14.654
		c1.083,0,1.96-0.877,1.96-1.96l0.006-15.803c0-0.52-0.207-1.018-0.574-1.386c-0.367-0.368-0.867-0.575-1.387-0.575H56.842v-9.246
		c0-4.444,1.059-6.7,6.848-6.7l8.397-0.003c1.082,0,1.959-0.878,1.959-1.96V1.98C74.046,0.899,73.17,0.022,72.089,0.02z"/>
	</g>

	<g id="twitter-icon" viewBox="0 0 512 512"> 
		<path fill="#b2b9ca" d="M153.62,301.59c94.34,0,145.94-78.16,145.94-145.94,0-2.22,0-4.43-.15-6.63A104.36,104.36,0,0,0,325,122.47a102.38,102.38,0,0,1-29.46,8.07,51.47,51.47,0,0,0,22.55-28.37,102.79,102.79,0,0,1-32.57,12.45,51.34,51.34,0,0,0-87.41,46.78A145.62,145.62,0,0,1,92.4,107.81a51.33,51.33,0,0,0,15.88,68.47A50.91,50.91,0,0,1,85,169.86c0,.21,0,.43,0,.65a51.31,51.31,0,0,0,41.15,50.28,51.21,51.21,0,0,1-23.16.88,51.35,51.35,0,0,0,47.92,35.62,102.92,102.92,0,0,1-63.7,22A104.41,104.41,0,0,1,75,278.55a145.21,145.21,0,0,0,78.62,23"/>
	</g>
	
	<g id="instagram-icon" viewBox="0 0 512 512">
		<path fill="#ffffff" d="M65.03 0C37.888 0 29.95.028 28.407.156c-5.57.463-9.036 1.34-12.812 3.22-2.91 1.445-5.205 3.12-7.47 5.468C4 13.126 1.5 18.394.595 24.656c-.44 3.04-.568 3.66-.594 19.188-.01 5.176 0 11.988 0 21.125 0 27.12.03 35.05.16 36.59.45 5.42 1.3 8.83 3.1 12.56 3.44 7.14 10.01 12.5 17.75 14.5 2.68.69 5.64 1.07 9.44 1.25 1.61.07 18.02.12 34.44.12 16.42 0 32.84-.02 34.41-.1 4.4-.207 6.955-.55 9.78-1.28 7.79-2.01 14.24-7.29 17.75-14.53 1.765-3.64 2.66-7.18 3.065-12.317.088-1.12.125-18.977.125-36.81 0-17.836-.04-35.66-.128-36.78-.41-5.22-1.305-8.73-3.127-12.44-1.495-3.037-3.155-5.305-5.565-7.624C116.9 4 111.64 1.5 105.372.596 102.335.157 101.73.027 86.19 0H65.03z" transform="translate(1.004 1)"/>
		<path fill="#ffffff" d="M65.03 0C37.888 0 29.95.028 28.407.156c-5.57.463-9.036 1.34-12.812 3.22-2.91 1.445-5.205 3.12-7.47 5.468C4 13.126 1.5 18.394.595 24.656c-.44 3.04-.568 3.66-.594 19.188-.01 5.176 0 11.988 0 21.125 0 27.12.03 35.05.16 36.59.45 5.42 1.3 8.83 3.1 12.56 3.44 7.14 10.01 12.5 17.75 14.5 2.68.69 5.64 1.07 9.44 1.25 1.61.07 18.02.12 34.44.12 16.42 0 32.84-.02 34.41-.1 4.4-.207 6.955-.55 9.78-1.28 7.79-2.01 14.24-7.29 17.75-14.53 1.765-3.64 2.66-7.18 3.065-12.317.088-1.12.125-18.977.125-36.81 0-17.836-.04-35.66-.128-36.78-.41-5.22-1.305-8.73-3.127-12.44-1.495-3.037-3.155-5.305-5.565-7.624C116.9 4 111.64 1.5 105.372.596 102.335.157 101.73.027 86.19 0H65.03z" transform="translate(1.004 1)"/>
		<path fill="#b2b9ca" d="M66.004 18c-13.036 0-14.672.057-19.792.29-5.11.234-8.598 1.043-11.65 2.23-3.157 1.226-5.835 2.866-8.503 5.535-2.67 2.668-4.31 5.346-5.54 8.502-1.19 3.053-2 6.542-2.23 11.65C18.06 51.327 18 52.964 18 66s.058 14.667.29 19.787c.235 5.11 1.044 8.598 2.23 11.65 1.227 3.157 2.867 5.835 5.536 8.503 2.667 2.67 5.345 4.314 8.5 5.54 3.054 1.187 6.543 1.996 11.652 2.23 5.12.233 6.755.29 19.79.29 13.037 0 14.668-.057 19.788-.29 5.11-.234 8.602-1.043 11.656-2.23 3.156-1.226 5.83-2.87 8.497-5.54 2.67-2.668 4.31-5.346 5.54-8.502 1.18-3.053 1.99-6.542 2.23-11.65.23-5.12.29-6.752.29-19.788 0-13.036-.06-14.672-.29-19.792-.24-5.11-1.05-8.598-2.23-11.65-1.23-3.157-2.87-5.835-5.54-8.503-2.67-2.67-5.34-4.31-8.5-5.535-3.06-1.187-6.55-1.996-11.66-2.23-5.12-.233-6.75-.29-19.79-.29zm-4.306 8.65c1.278-.002 2.704 0 4.306 0 12.816 0 14.335.046 19.396.276 4.68.214 7.22.996 8.912 1.653 2.24.87 3.837 1.91 5.516 3.59 1.68 1.68 2.72 3.28 3.592 5.52.657 1.69 1.44 4.23 1.653 8.91.23 5.06.28 6.58.28 19.39s-.05 14.33-.28 19.39c-.214 4.68-.996 7.22-1.653 8.91-.87 2.24-1.912 3.835-3.592 5.514-1.68 1.68-3.275 2.72-5.516 3.59-1.69.66-4.232 1.44-8.912 1.654-5.06.23-6.58.28-19.396.28-12.817 0-14.336-.05-19.396-.28-4.68-.216-7.22-.998-8.913-1.655-2.24-.87-3.84-1.91-5.52-3.59-1.68-1.68-2.72-3.276-3.592-5.517-.657-1.69-1.44-4.23-1.653-8.91-.23-5.06-.276-6.58-.276-19.398s.046-14.33.276-19.39c.214-4.68.996-7.22 1.653-8.912.87-2.24 1.912-3.84 3.592-5.52 1.68-1.68 3.28-2.72 5.52-3.592 1.692-.66 4.233-1.44 8.913-1.655 4.428-.2 6.144-.26 15.09-.27zm29.928 7.97c-3.18 0-5.76 2.577-5.76 5.758 0 3.18 2.58 5.76 5.76 5.76 3.18 0 5.76-2.58 5.76-5.76 0-3.18-2.58-5.76-5.76-5.76zm-25.622 6.73c-13.613 0-24.65 11.037-24.65 24.65 0 13.613 11.037 24.645 24.65 24.645C79.617 90.645 90.65 79.613 90.65 66S79.616 41.35 66.003 41.35zm0 8.65c8.836 0 16 7.163 16 16 0 8.836-7.164 16-16 16-8.837 0-16-7.164-16-16 0-8.837 7.163-16 16-16z"/>
	</g>
</svg>